<?xml version="1.0" encoding="UTF-8"?>
<!-- Generator: visioncortex VTracer 0.6.4 -->
<svg version="1.1" xmlns="http://www.w3.org/2000/svg" width="931" height="931">
    <path d="M0,0 L18,0 L28,4 L34,8 L41,15 L47,27 L50,39 L50,56 L46,73 L44,77 L59,72 L69,70 L82,70 L95,74 L104,80 L111,88 L115,97 L116,102 L116,114 L113,125 L109,133 L100,144 L90,151 L80,156 L77,158 L88,165 L98,174 L104,184 L107,194 L107,205 L104,215 L98,224 L91,230 L83,234 L77,236 L55,236 L44,233 L33,228 L34,232 L34,248 L30,259 L24,267 L14,273 L10,274 L-3,274 L-12,271 L-21,264 L-25,258 L-26,279 L-26,312 L-16,299 L-9,292 L4,283 L20,275 L40,270 L57,270 L68,273 L77,279 L82,286 L83,289 L83,304 L78,313 L68,323 L51,332 L40,336 L57,340 L77,347 L93,355 L107,363 L120,373 L130,382 L139,391 L149,404 L158,419 L166,436 L175,463 L181,494 L183,512 L183,568 L179,604 L173,635 L165,666 L155,696 L143,724 L135,740 L124,760 L108,784 L98,797 L89,808 L75,823 L61,836 L47,847 L30,859 L15,868 L-10,880 L-31,887 L-45,890 L-55,891 L-66,891 L-82,888 L-96,881 L-106,872 L-111,862 L-113,856 L-128,865 L-145,873 L-169,881 L-186,884 L-216,884 L-231,880 L-247,872 L-254,866 L-260,857 L-262,851 L-262,845 L-278,853 L-299,861 L-321,867 L-347,870 L-363,870 L-382,868 L-401,863 L-418,856 L-432,847 L-444,836 L-453,824 L-460,810 L-464,795 L-466,782 L-466,753 L-463,731 L-456,703 L-446,674 L-434,646 L-418,613 L-403,584 L-388,559 L-372,534 L-364,523 L-354,509 L-344,496 L-335,485 L-323,471 L-309,456 L-284,431 L-276,424 L-263,413 L-249,402 L-232,390 L-213,378 L-192,366 L-164,353 L-128,341 L-111,337 L-124,332 L-135,325 L-141,320 L-147,310 L-148,307 L-148,293 L-144,285 L-137,278 L-129,274 L-122,272 L-106,272 L-92,275 L-77,281 L-66,288 L-56,297 L-49,305 L-45,312 L-44,281 L-44,263 L-57,272 L-66,275 L-81,275 L-91,271 L-100,263 L-105,253 L-106,248 L-106,234 L-103,222 L-102,220 L-114,224 L-121,225 L-137,225 L-151,221 L-161,215 L-168,208 L-172,202 L-175,191 L-175,182 L-172,172 L-166,163 L-157,155 L-141,147 L-136,145 L-139,142 L-150,134 L-159,124 L-166,110 L-168,101 L-168,90 L-165,78 L-159,68 L-151,61 L-139,56 L-126,55 L-111,58 L-95,66 L-90,69 L-93,56 L-93,47 L-90,33 L-85,23 L-77,15 L-69,11 L-64,10 L-55,10 L-45,13 L-36,20 L-31,27 L-24,16 L-14,6 L-3,1 Z " fill="#FEFEFE" transform="translate(557,18)"/>
    <path d="M0,0 L18,0 L28,4 L34,8 L41,15 L47,27 L50,39 L50,56 L46,73 L44,77 L59,72 L69,70 L82,70 L95,74 L104,80 L111,88 L115,97 L116,102 L116,114 L113,125 L109,133 L100,144 L90,151 L80,156 L77,158 L88,165 L98,174 L104,184 L107,194 L107,205 L104,215 L98,224 L91,230 L83,234 L77,236 L55,236 L44,233 L33,228 L34,232 L34,248 L30,259 L24,267 L14,273 L10,274 L-3,274 L-12,271 L-21,264 L-25,258 L-26,279 L-26,312 L-16,299 L-9,292 L4,283 L20,275 L40,270 L57,270 L68,273 L77,279 L82,286 L83,289 L83,304 L78,313 L68,323 L51,332 L40,336 L57,340 L77,347 L93,355 L107,363 L120,373 L130,382 L139,391 L149,404 L158,419 L166,436 L175,463 L181,494 L183,512 L183,568 L179,604 L173,635 L165,666 L155,696 L143,724 L135,740 L124,760 L108,784 L98,797 L89,808 L75,823 L61,836 L47,847 L30,859 L15,868 L-10,880 L-31,887 L-45,890 L-55,891 L-66,891 L-82,888 L-96,881 L-106,872 L-111,862 L-113,856 L-128,865 L-145,873 L-169,881 L-186,884 L-216,884 L-231,880 L-247,872 L-254,866 L-260,857 L-262,851 L-262,845 L-278,853 L-299,861 L-321,867 L-347,870 L-363,870 L-382,868 L-401,863 L-418,856 L-432,847 L-444,836 L-453,824 L-460,810 L-464,795 L-466,782 L-466,753 L-463,731 L-456,703 L-446,674 L-434,646 L-418,613 L-403,584 L-388,559 L-372,534 L-364,523 L-354,509 L-344,496 L-335,485 L-323,471 L-309,456 L-284,431 L-276,424 L-263,413 L-249,402 L-232,390 L-213,378 L-192,366 L-164,353 L-128,341 L-111,337 L-124,332 L-135,325 L-141,320 L-147,310 L-148,307 L-148,293 L-144,285 L-137,278 L-129,274 L-122,272 L-106,272 L-92,275 L-77,281 L-66,288 L-56,297 L-49,305 L-45,312 L-44,281 L-44,263 L-57,272 L-66,275 L-81,275 L-91,271 L-100,263 L-105,253 L-106,248 L-106,234 L-103,222 L-102,220 L-114,224 L-121,225 L-137,225 L-151,221 L-161,215 L-168,208 L-172,202 L-175,191 L-175,182 L-172,172 L-166,163 L-157,155 L-141,147 L-136,145 L-139,142 L-150,134 L-159,124 L-166,110 L-168,101 L-168,90 L-165,78 L-159,68 L-151,61 L-139,56 L-126,55 L-111,58 L-95,66 L-90,69 L-93,56 L-93,47 L-90,33 L-85,23 L-77,15 L-69,11 L-64,10 L-55,10 L-45,13 L-36,20 L-31,27 L-24,16 L-14,6 L-3,1 Z M-53,345 L-73,347 L-98,351 L-126,358 L-152,367 L-177,378 L-201,391 L-215,400 L-234,413 L-248,424 L-261,435 L-275,447 L-305,477 L-314,488 L-323,498 L-336,515 L-348,531 L-356,543 L-371,566 L-383,586 L-393,604 L-407,631 L-422,663 L-433,691 L-442,719 L-447,743 L-448,752 L-448,781 L-445,798 L-440,811 L-432,823 L-423,832 L-412,839 L-400,845 L-386,849 L-369,852 L-345,852 L-327,850 L-302,844 L-282,836 L-265,827 L-248,815 L-244,812 L-235,812 L-231,816 L-231,824 L-235,829 L-243,836 L-244,838 L-244,847 L-239,855 L-231,861 L-221,865 L-212,867 L-189,867 L-167,862 L-150,856 L-134,848 L-120,840 L-108,831 L-95,820 L-91,817 L-83,817 L-79,822 L-79,828 L-83,834 L-93,844 L-95,848 L-95,855 L-90,863 L-82,869 L-69,873 L-50,873 L-35,870 L-15,863 L4,854 L22,843 L40,830 L53,819 L65,808 L71,802 L71,800 L73,800 L82,789 L92,777 L110,750 L124,724 L135,699 L144,675 L151,652 L158,622 L164,586 L166,565 L166,512 L163,489 L158,466 L150,442 L142,426 L134,413 L127,404 L118,394 L106,383 L91,373 L74,364 L53,356 L30,350 L5,346 L-6,345 Z " fill="#0E0E0C" transform="translate(557,18)"/>
    <path d="M0,0 L14,0 L22,4 L28,11 L32,19 L33,24 L33,40 L29,55 L21,71 L13,81 L4,91 L-3,96 L-15,90 L-28,87 L-28,49 L-25,33 L-20,20 L-14,10 L-7,3 Z " fill="#FCD70B" transform="translate(559,33)"/>
    <path d="M0,0 L10,0 L23,4 L36,11 L49,22 L60,35 L67,45 L65,49 L58,60 L54,70 L37,70 L21,67 L6,61 L-5,54 L-12,47 L-18,36 L-19,31 L-19,18 L-14,8 L-8,3 Z " fill="#FDD80B" transform="translate(423,88)"/>
    <path d="M0,0 L14,0 L23,3 L31,10 L35,20 L34,31 L29,41 L22,49 L10,56 L-4,60 L-11,61 L-33,61 L-47,58 L-51,46 L-55,39 L-54,34 L-41,21 L-29,12 L-19,6 L-4,1 Z " fill="#FCD70A" transform="translate(624,103)"/>
    <path d="M0,0 L15,0 L26,4 L36,13 L41,21 L43,28 L43,41 L39,52 L33,60 L27,65 L16,70 L-1,70 L-15,63 L-23,54 L-27,46 L-28,41 L-28,28 L-24,18 L-18,10 L-13,6 L-3,1 Z " fill="#FDB114" transform="translate(519,135)"/>
    <path d="M0,0 L19,0 L35,4 L50,10 L60,17 L65,22 L71,30 L73,36 L72,46 L67,54 L62,58 L55,61 L49,62 L39,62 L27,59 L12,51 L-1,41 L-10,32 L-13,28 L-12,24 L-5,14 Z " fill="#FCD70D" transform="translate(577,178)"/>
    <path d="M0,0 L30,0 L36,2 L41,18 L46,26 L44,30 L35,38 L24,45 L11,51 L-5,55 L-19,55 L-31,51 L-39,44 L-43,35 L-43,27 L-38,18 L-29,10 L-16,4 Z " fill="#FCD60A" transform="translate(440,173)"/>
    <path d="M0,0 L19,0 L34,4 L42,8 L52,16 L59,25 L65,37 L65,48 L61,53 L59,54 L52,54 L47,51 L41,36 L32,26 L20,20 L15,19 L6,19 L-6,23 L-17,31 L-23,39 L-30,52 L-35,55 L-41,55 L-46,51 L-48,47 L-48,40 L-44,31 L-36,20 L-29,13 L-18,6 L-5,1 Z " fill="#0E0E0E" transform="translate(439,501)"/>
    <path d="M0,0 L15,0 L28,3 L38,8 L48,17 L53,23 L59,35 L60,46 L57,51 L53,54 L46,54 L41,50 L37,38 L31,30 L23,23 L15,20 L0,20 L-11,24 L-20,31 L-29,44 L-34,53 L-37,55 L-44,55 L-50,51 L-51,49 L-51,38 L-44,26 L-33,14 L-20,6 L-10,2 Z " fill="#0E0E0E" transform="translate(621,501)"/>
    <path d="M0,0 L5,1 L18,6 L24,8 L24,21 L20,38 L13,51 L4,60 L-8,66 L-19,66 L-27,61 L-31,55 L-32,52 L-32,40 L-27,27 L-20,16 L-10,6 Z " fill="#FDD609" transform="translate(497,212)"/>
    <path d="M0,0 L12,0 L21,3 L25,7 L25,17 L21,23 L12,30 L-4,37 L-24,42 L-40,45 L-61,45 L-59,39 L-49,26 L-41,18 L-31,11 L-19,5 L-6,1 Z " fill="#7BB406" transform="translate(600,302)"/>
    <path d="M0,0 L9,1 L14,5 L19,14 L21,23 L21,68 L20,78 L10,82 L8,82 L-3,67 L-10,55 L-15,40 L-16,34 L-16,21 L-12,9 L-8,4 Z " fill="#FBD80D" transform="translate(495,43)"/>
    <path d="M0,0 L8,0 L23,3 L35,8 L46,15 L54,22 L60,30 L66,42 L64,43 L52,44 L37,44 L12,38 L-4,30 L-12,23 L-15,16 L-14,9 L-10,4 Z " fill="#7BB408" transform="translate(438,304)"/>
    <path d="M0,0 L4,2 L15,13 L21,23 L25,34 L26,38 L26,49 L22,57 L17,61 L11,63 L5,63 L-5,57 L-11,49 L-15,39 L-17,29 L-17,15 L-16,6 Z " fill="#FBD70D" transform="translate(551,214)"/>
    <path d="M0,0 L5,1 L18,6 L24,8 L24,21 L23,26 L22,26 L22,9 L11,6 L4,3 L-3,4 L-12,11 L-19,19 L-20,22 L-23,24 L-27,32 L-29,39 L-29,53 L-26,59 L-20,63 L-9,65 L-9,66 L-19,66 L-27,61 L-31,55 L-32,52 L-32,40 L-27,27 L-20,16 L-10,6 Z " fill="#E1D64B" transform="translate(497,212)"/>
    <path d="M0,0 L14,0 L23,3 L31,10 L35,20 L34,31 L29,41 L25,45 L27,40 L32,30 L32,18 L28,10 L20,4 L17,3 L-2,3 L-15,7 L-22,11 L-27,12 L-24,9 L-14,4 Z " fill="#E5DA50" transform="translate(624,103)"/>
    <path d="M0,0 L6,1 L14,7 L21,15 L25,26 L25,39 L21,50 L15,58 L11,61 L13,57 L15,53 L17,51 L20,47 L21,45 L21,21 L17,13 L10,6 L0,1 Z " fill="#EAC247" transform="translate(537,137)"/>
    <path d="M0,0 L2,1 L5,13 L5,58 L4,68 L1,67 L3,67 L3,16 L1,7 L0,6 Z " fill="#EDDE3B" transform="translate(511,53)"/>
    <path d="M0,0 L14,0 L22,4 L26,8 L25,10 L19,5 L13,2 L2,2 L-8,7 L-13,12 L-16,21 L-19,22 L-21,27 L-22,24 L-15,11 L-7,3 Z " fill="#ECE052" transform="translate(559,33)"/>
    <path d="M0,0 L4,2 L15,13 L21,23 L24,30 L23,34 L20,26 L18,25 L16,18 L5,6 L2,3 L-3,3 L-4,5 L-14,7 L-15,16 L-16,16 L-16,6 Z " fill="#E9E156" transform="translate(551,214)"/>
    <path d="M0,0 L30,0 L36,2 L41,18 L40,20 L37,15 L34,3 L28,2 L1,2 L-17,6 L-17,8 L-25,9 L-21,6 L-10,2 Z " fill="#EBDF56" transform="translate(440,173)"/>
    <path d="M0,0 L3,0 L3,2 L0,4 L-4,12 L-6,19 L-6,33 L-3,39 L3,43 L14,45 L14,46 L4,46 L-4,41 L-8,35 L-9,32 L-9,20 L-4,7 Z " fill="#EDE14C" transform="translate(474,232)"/>
    <path d="M0,0 L1,3 L-1,11 L-1,24 L1,24 L4,29 L5,29 L8,38 L12,43 L8,41 L2,34 L-2,26 L-3,21 L-3,8 Z " fill="#EFC847" transform="translate(494,155)"/>
    <path d="M0,0 L1,3 L-2,10 L-19,10 L-35,7 L-43,4 L-39,3 L-23,7 L-3,8 L-1,2 Z " fill="#EEE242" transform="translate(479,148)"/>
    <path d="M0,0 L3,1 L-10,7 L-26,11 L-40,11 L-47,9 L-47,8 L-24,8 L-15,6 L-2,1 Z " fill="#EFE34D" transform="translate(461,217)"/>
    <path d="M0,0 L12,0 L16,2 L-2,3 L-12,5 L-16,7 L-19,8 L-19,10 L-23,9 L-29,11 L-26,8 L-10,2 Z " fill="#99C635" transform="translate(600,302)"/>
    <path d="M0,0 L15,0 L17,2 L1,4 L-8,7 L-11,6 L-8,3 Z " fill="#EEC045" transform="translate(519,135)"/>
    <path d="M0,0 L1,3 L-6,19 L-15,31 L-20,36 L-19,32 L-12,24 L-10,18 L-7,18 L-4,9 L-3,5 L-1,5 Z " fill="#E6D746" transform="translate(588,82)"/>
    <path d="M0,0 L4,1 L4,23 L0,34 L-2,36 L-1,31 L1,25 L2,11 L3,2 L0,1 Z " fill="#EDD925" transform="translate(515,220)"/>
    <path d="M0,0 L8,1 L9,2 L28,2 L33,1 L29,4 L26,5 L9,5 L0,1 Z " fill="#EFC94F" transform="translate(509,200)"/>
    <path d="M0,0 L3,3 L5,9 L4,19 L-1,27 L-3,28 L-1,23 L1,20 L2,11 L2,4 L0,4 Z " fill="#D7CA43" transform="translate(645,205)"/>
    <path d="M0,0 L16,0 L16,1 L2,2 L-11,6 L-18,10 L-23,11 L-20,8 L-10,3 Z " fill="#F7E64C" transform="translate(620,104)"/>
    <path d="M0,0 L1,2 L15,1 L13,3 L-5,6 L-9,5 L-3,4 L-4,1 Z " fill="#93C32E" transform="translate(568,340)"/>
    <path d="M0,0 L2,2 L2,13 L0,21 L-2,17 L-1,14 L-2,11 Z " fill="#1A1B19" transform="translate(662,210)"/>
    <path d="M0,0 L22,1 L21,3 L7,3 L0,1 Z " fill="#F3E63D" transform="translate(414,225)"/>
    <path d="M0,0 L1,3 L-6,12 L-13,16 L-17,15 L-8,10 L-1,2 Z " fill="#1B1201" transform="translate(557,187)"/>
    <path d="M0,0 L6,1 L10,5 L14,7 L14,12 L10,9 L10,7 L6,5 L0,1 Z " fill="#1A1804" transform="translate(630,190)"/>
    <path d="M0,0 L2,1 L-2,3 Z M-3,3 L-3,6 L-5,5 Z M-6,6 Z M-7,7 L-7,10 L-12,15 L-16,17 L-14,13 Z " fill="#060606" transform="translate(622,825)"/>
    <path d="M0,0 L6,0 L1,4 L-9,9 L-12,8 L-3,4 Z " fill="#E9DB3E" transform="translate(640,151)"/>
    <path d="M0,0 L4,1 L0,4 L-6,6 L-11,12 L-12,10 L-6,3 Z " fill="#F1E34F" transform="translate(419,89)"/>
    <path d="M0,0 L3,3 L6,10 L4,11 L-8,11 L-8,10 L3,9 Z " fill="#9BC648" transform="translate(498,336)"/>
    <path d="M0,0 L1,3 L-5,13 L-11,18 L-9,14 L-7,10 L-5,8 L-2,4 Z " fill="#ECCA53" transform="translate(559,180)"/>
    <path d="M0,0 L3,4 L4,6 L12,8 L12,10 L6,10 L1,6 Z " fill="#070707" transform="translate(661,545)"/>
    <path d="M0,0 L3,1 L-3,6 L-6,5 L-6,7 L-10,7 L-10,5 Z " fill="#0A1502" transform="translate(614,330)"/>
    <path d="M0,0 L2,0 L2,11 L-2,13 Z " fill="#171203" transform="translate(520,233)"/>
    <path d="M0,0 L2,3 L6,12 L7,14 L4,14 L2,10 L0,9 L-1,1 Z " fill="#1A1803" transform="translate(396,205)"/>
    <path d="M0,0 L2,0 L1,3 L-8,10 L-8,7 L-4,2 L0,2 Z " fill="#0A1701" transform="translate(564,314)"/>
    <path d="M0,0 L2,0 L2,13 L0,12 L-1,2 Z " fill="#161000" transform="translate(489,163)"/>
    <path d="M0,0 L3,1 L-7,8 L-10,10 L-9,6 Z " fill="#211D04" transform="translate(594,114)"/>
    <path d="M0,0 L2,0 L6,9 L5,13 L2,5 L0,4 Z " fill="#EEE041" transform="translate(569,235)"/>
    <path d="M0,0 L1,2 L-2,8 L-4,8 L-6,13 L-7,10 L-5,6 L-2,4 Z " fill="#F2DD30" transform="translate(544,47)"/>
    <path d="M0,0 L9,3 L12,5 L7,6 L0,2 Z " fill="#0E1B02" transform="translate(441,338)"/>
    <path d="M0,0 L9,1 L11,2 L11,4 L1,2 Z " fill="#171203" transform="translate(511,216)"/>
    <path d="M0,0 L5,5 L8,9 L7,11 L2,6 L0,4 Z " fill="#EEE043" transform="translate(480,121)"/>
    <path d="M0,0 L0,3 L-6,10 L-6,12 L-9,11 L-6,6 Z " fill="#090500" transform="translate(570,116)"/>
    <path d="M0,0 L4,1 L8,7 L7,10 L5,8 L2,3 Z " fill="#131301" transform="translate(651,109)"/>
    <path d="M0,0 L2,4 L0,8 L-3,8 L-2,3 Z " fill="#141414" transform="translate(688,758)"/>
    <path d="M0,0 L9,0 L9,2 L-2,3 Z " fill="#141413" transform="translate(422,240)"/>
    <path d="M0,0 L0,3 L-3,6 L-9,8 L-4,3 Z M-11,8 L-9,9 Z " fill="#171600" transform="translate(480,206)"/>
    <path d="M0,0 L11,0 L12,2 L5,3 L0,1 Z " fill="#060606" transform="translate(177,869)"/>
    <path d="M0,0 L5,0 L2,3 L-6,3 L-3,1 Z " fill="#242424" transform="translate(434,502)"/>
    <path d="M0,0 L4,1 L-2,4 L-8,4 L-6,2 Z " fill="#051200" transform="translate(599,337)"/>
    <path d="M0,0 L1,0 L1,6 L-3,12 L-5,13 L-3,8 L-1,5 Z " fill="#ECDF49" transform="translate(647,220)"/>
    <path d="M0,0 L5,5 L4,10 L2,11 L2,6 L0,3 Z " fill="#080801" transform="translate(483,193)"/>
    <path d="M0,0 L5,0 L8,3 L-3,3 Z " fill="#1C1C1C" transform="translate(494,906)"/>
    <path d="M0,0 L3,1 L-1,7 L-3,4 L-3,2 Z " fill="#141501" transform="translate(475,227)"/>
    <path d="M0,0 L8,6 L4,8 L4,5 L1,4 Z " fill="#121101" transform="translate(572,215)"/>
    <path d="M0,0 L2,1 L-1,6 L-4,7 L-6,5 Z " fill="#131313" transform="translate(456,842)"/>
    <path d="M0,0 L3,1 L-5,7 L-4,3 Z " fill="#161201" transform="translate(488,215)"/>
    <path d="M0,0 L2,0 L2,5 L3,8 L1,8 L-1,5 Z " fill="#191402" transform="translate(568,137)"/>
    <path d="M0,0 L2,1 L0,5 L-3,8 L-3,3 L0,3 Z " fill="#EEE041" transform="translate(488,132)"/>
    <path d="M0,0 L0,3 L-4,6 L-8,5 Z " fill="#EDDA43" transform="translate(605,109)"/>
</svg>